<?xml version="1.0" standalone="no"?>
<!DOCTYPE svg PUBLIC "-//W3C//DTD SVG 20010904//EN"
 "http://www.w3.org/TR/2001/REC-SVG-20010904/DTD/svg10.dtd">
<svg version="1.0" xmlns="http://www.w3.org/2000/svg"
 width="374.000000pt" height="298.000000pt" viewBox="0 0 374.000000 298.000000"
 preserveAspectRatio="xMidYMid meet">

<g transform="translate(0.000000,298.000000) scale(0.100000,-0.100000)"
fill="#000000" stroke="none">
<path d="M850 2480 c0 -5 19 -10 41 -10 l42 0 -7 -37 c-3 -21 -6 -57 -6 -79
l0 -42 -72 2 c-40 0 -76 6 -80 11 -4 6 -8 29 -8 53 0 23 -4 42 -9 42 -11 0
-23 -132 -12 -143 4 -4 55 -6 112 -5 l104 3 -1 54 -2 53 97 -8 c117 -11 213
-11 441 -2 l175 8 -94 -21 c-285 -61 -493 -231 -626 -510 -41 -88 -86 -225
-84 -259 0 -8 9 16 20 54 45 157 155 336 275 445 63 58 206 156 289 199 28 14
95 40 149 57 55 18 95 34 90 38 -5 3 -117 11 -249 18 -181 9 -265 9 -343 0
-152 -16 -142 -19 -142 39 l0 50 -50 0 c-27 0 -50 -4 -50 -10z"/>
<path d="M1725 2458 c-3 -18 -5 -67 -3 -108 l3 -75 103 -3 c121 -3 118 -6 106
106 l-7 77 -11 -68 -11 -69 -75 -1 -75 -2 -3 78 -3 77 35 0 c19 0 38 5 41 10
4 6 -13 10 -44 10 -49 0 -50 -1 -56 -32z"/>
<path d="M2710 2439 l0 -51 -87 9 c-99 9 -422 6 -558 -5 l-90 -8 180 -9 c225
-12 334 -12 456 -1 l97 8 -2 -53 -1 -54 104 -3 c57 -1 108 1 113 6 11 11 -2
153 -13 146 -5 -3 -9 -24 -9 -47 0 -23 -4 -46 -8 -52 -4 -5 -40 -11 -79 -11
l-73 -2 0 42 c0 22 -3 58 -6 79 -7 37 -7 37 29 37 20 0 39 5 42 10 4 6 -13 10
-44 10 l-51 0 0 -51z"/>
<path d="M2074 2349 c157 -45 336 -155 445 -275 58 -63 156 -206 199 -289 14
-27 40 -95 59 -150 34 -104 35 -80 2 64 -57 247 -228 451 -484 576 -100 49
-237 96 -275 94 -8 0 16 -9 54 -20z"/>
<path d="M1820 2043 c0 -15 -3 -44 -6 -63 l-6 -35 -84 -17 c-119 -23 -186 -58
-270 -142 -84 -84 -127 -165 -152 -285 -17 -83 -17 -83 -46 -78 -33 5 -106
-11 -106 -23 0 -12 74 -27 108 -22 18 2 32 0 32 -4 1 -44 36 -158 67 -217 74
-143 207 -242 371 -274 l83 -16 -3 -41 c-2 -47 10 -106 22 -106 12 0 24 59 22
107 -3 41 -2 42 35 48 157 25 316 125 376 237 17 31 17 32 0 8 -77 -107 -191
-186 -314 -215 -100 -23 -109 -21 -109 20 0 19 -4 35 -10 35 -5 0 -10 -16 -10
-35 0 -41 -5 -42 -99 -20 -184 44 -332 192 -376 376 -22 97 -21 109 15 109 17
0 30 5 30 10 0 6 -14 10 -31 10 l-31 0 7 45 c24 162 121 300 265 379 62 34
185 70 201 60 5 -3 11 -20 15 -39 3 -19 10 -35 14 -35 4 0 11 16 14 35 4 19
11 37 16 40 19 12 137 -17 206 -51 86 -42 170 -125 219 -214 19 -36 35 -59 35
-51 0 27 -66 137 -116 191 -81 87 -189 143 -316 165 -37 6 -37 6 -44 66 -7 62
-24 91 -24 42z"/>
<path d="M2331 1514 c0 -11 3 -14 6 -6 3 7 2 16 -1 19 -3 4 -6 -2 -5 -13z"/>
<path d="M736 1423 c-11 -136 -13 -131 42 -138 26 -3 55 -10 65 -16 11 -6 17
-6 17 1 0 5 15 10 33 10 59 0 68 14 57 99 -11 86 -20 103 -20 40 0 -86 -3 -89
-85 -89 l-73 0 -7 71 c-4 39 -3 75 1 79 5 5 34 11 64 13 52 3 51 3 -16 5 l-71
2 -7 -77z"/>
<path d="M2708 1430 c-4 -145 -7 -133 32 -142 19 -5 43 -13 53 -19 12 -6 23
-7 30 -1 7 5 31 12 55 15 24 3 46 7 48 10 2 2 1 36 -2 76 -7 75 -24 98 -24 32
0 -68 -4 -71 -86 -71 l-74 0 -2 50 c-4 116 -11 104 62 111 l65 6 -77 1 -78 2
-2 -70z"/>
<path d="M2293 1417 c-24 -5 -43 -13 -43 -17 0 -4 19 -11 43 -16 44 -10 197 3
197 16 0 4 -30 11 -67 15 -36 4 -71 8 -77 10 -6 1 -30 -2 -53 -8z"/>
<path d="M906 1050 c12 -52 94 -207 142 -270 66 -88 195 -207 273 -253 149
-87 305 -128 494 -128 175 0 306 31 455 106 150 75 294 207 384 350 11 17 26
40 34 53 8 12 12 22 10 22 -3 0 -22 -26 -43 -57 -107 -162 -251 -282 -431
-361 -187 -82 -428 -99 -629 -46 -82 22 -274 115 -349 168 -124 89 -256 249
-322 389 -13 29 -22 41 -18 27z"/>
</g>
</svg>
